<svg xmlns="http://www.w3.org/2000/svg" width="36" height="36" viewBox="0 0 40 40" fill="none">
  <!-- Water spray arcs -->
  <path d="M20 14 C20 14 16 9 20 4" stroke="white" stroke-width="1.8" stroke-linecap="round" opacity="0.7" />
  <path d="M20 14 C20 14 24 9 20 4" stroke="white" stroke-width="1.8" stroke-linecap="round" opacity="0.7" />
  <path d="M20 12 C20 12 17 8 20 4" stroke="white" stroke-width="1.5" stroke-linecap="round" opacity="0.5" />
  <path d="M20 12 C20 12 23 8 20 4" stroke="white" stroke-width="1.5" stroke-linecap="round" opacity="0.5" />
  <!-- Water droplets -->
  <circle cx="16" cy="5" r="1.8" fill="white" opacity="0.9" />
  <circle cx="24" cy="5" r="1.8" fill="white" opacity="0.9" />
  <circle cx="20" cy="2.5" r="1.5" fill="white" opacity="0.8" />
  <circle cx="13" cy="8" r="1.2" fill="white" opacity="0.6" />
  <circle cx="27" cy="8" r="1.2" fill="white" opacity="0.6" />
  <!-- Car roof -->
  <path d="M13 19 L15 12 L25 12 L27 19 Z" fill="white" />
  <!-- Car body -->
  <path d="M5 30 L7 23 L10 19 L30 19 L33 23 L35 30 Z" fill="white" />
  <!-- Window divider -->
  <line x1="20" y1="12" x2="20" y2="19" stroke="#3B82F6" stroke-width="1.8" opacity="0.5" />
  <!-- Wheels -->
  <circle cx="11" cy="31" r="4.5" fill="#1E40AF" stroke="white" stroke-width="1.5" />
  <circle cx="29" cy="31" r="4.5" fill="#1E40AF" stroke="white" stroke-width="1.5" />
  <!-- Wheel centers -->
  <circle cx="11" cy="31" r="1.5" fill="white" opacity="0.5" />
  <circle cx="29" cy="31" r="1.5" fill="white" opacity="0.5" />
</svg>
